PathFileType	4	(X/Y/Z)	C:\Users\u0145647\OneDrive - KU Leuven\KU Leuven\c3d2osim\CP16\T0\Data\Processed\ViconC3D\CP16_T0_08_gapFilled.trc
DataRate	CameraRate	NumFrames	NumMarkers	Units	OrigDataRate	OrigDataStartFrame	OrigNumFrames
100.000000	100.000000	10	47	mm	100.000000	92	729
Frame#	Time	C7			T10			CLAV			STRN			LSHO			RSHO			RBAK			LASI			RASI			LPSI			RPSI			LLAT			RLAT			LF1			LF2			LF3			LTHI			LKNE			LMEK			RF1			RF2			RF3			RTHI			RKNE			RMEK			LT1			LT2			LT3			LTIB			LMM			LANK			RT1			RT2			RT3			RTIB			RANK			RMM			LHEE			LSTL			LLCA			LTOE			LCM5			RHEE			RSTL			RLCA			RTOE			RCM5
		X1	Y1	Z1	X2	Y2	Z2	X3	Y3	Z3	X4	Y4	Z4	X5	Y5	Z5	X6	Y6	Z6	X7	Y7	Z7	X8	Y8	Z8	X9	Y9	Z9	X10	Y10	Z10	X11	Y11	Z11	X12	Y12	Z12	X13	Y13	Z13	X14	Y14	Z14	X15	Y15	Z15	X16	Y16	Z16	X17	Y17	Z17	X18	Y18	Z18	X19	Y19	Z19	X20	Y20	Z20	X21	Y21	Z21	X22	Y22	Z22	X23	Y23	Z23	X24	Y24	Z24	X25	Y25	Z25	X26	Y26	Z26	X27	Y27	Z27	X28	Y28	Z28	X29	Y29	Z29	X30	Y30	Z30	X31	Y31	Z31	X32	Y32	Z32	X33	Y33	Z33	X34	Y34	Z34	X35	Y35	Z35	X36	Y36	Z36	X37	Y37	Z37	X38	Y38	Z38	X39	Y39	Z39	X40	Y40	Z40	X41	Y41	Z41	X42	Y42	Z42	X43	Y43	Z43	X44	Y44	Z44	X45	Y45	Z45	X46	Y46	Z46	X47	Y47	Z47

92	0.91	-2223.6	1428.2	-224.85	-2275.2	1149.7	-180.56	-2092.1	1351.2	-189.41	-2061.5	1179.9	-170.47	-2154.4	1336.4	-379.43	-2211.3	1408.1	-28.137	NaN	NaN	NaN	-2108.6	900.61	-281.88	-2099.8	895.67	-34.225	-2267.5	933.22	-195.41	-2263.9	922.68	-116.03	-2171.8	970.03	-300.59	-2154.9	978.59	-14.339	-2095.1	666.37	-307.26	-2091.8	712.81	-313.86	-2133.2	693.49	-315.83	-2049.6	574.69	-334.36	-2030.5	456.06	-266.16	-2063.7	450	-153.43	-2155.9	659.74	19.067	-2181.7	693.89	13.982	-2142.9	701.23	12.715	-2159.3	575.27	71.637	-2161.3	422.59	27.427	-2155.1	412.57	-93.24	-2052	376.19	-284.96	-2021.2	359.72	-262.98	-2047.9	326	-284.44	-2033	248.18	-329.61	-2129.5	54.461	-224.7	-2126.5	65.4	-315.68	-2266.7	333.36	37.605	-2245.7	363.81	42.402	-2226.3	334.06	32.23	-2323.3	261.06	74.741	-2483.7	179.07	29.303	-2471.2	183.06	-63.806	-2187.4	44.559	-279.8	-2113.7	20.297	-232.09	-2115.2	36.873	-325.52	-2010.6	35.381	-306.73	-2031	22.261	-349.32	-2523.8	227.88	-9.4831	-2488.6	154.25	-60.298	-2496.5	148.14	33.052	-2441.5	59.531	11.94	-2475.5	78.005	53.317
93	0.92	-2211.3	1427.4	-229.33	-2266.3	1150.8	-183.41	-2082.5	1352.1	-193.05	-2052.4	1180.4	-172.55	-2143.4	1336.2	-383.15	-2202.7	1410	-32.503	NaN	NaN	NaN	-2101.4	902.16	-283.36	-2092.7	896.56	-35.59	-2260.1	934.85	-196.14	-2256.5	923.64	-116.86	-2164.2	971.52	-301.51	-2147.4	979.51	-15.978	-2090.3	667.85	-309.2	-2086.1	716.17	-312.35	-2128.6	695.46	-317.48	-2044.2	573.95	-334.73	-2029.1	455.78	-267.76	-2062	450.54	-154.74	-2144.9	660.66	17.998	-2171.6	693.84	12.072	-2133.1	702.48	11.799	-2147	576.68	71.111	-2141.5	424.3	27.072	-2134.4	414.01	-93.321	-2051.2	375.98	-286.06	-2020.3	359.66	-264.17	-2047.2	326.13	-286.18	-2033	247.92	-330.82	-2129.7	54.414	-225	-2126.5	65.404	-315.82	-2246.5	336.14	37.579	-2225.6	366.83	42.446	-2207.4	335.79	31.042	-2303.8	264.65	74.633	-2467	184.33	29.003	-2453.3	190.39	-63.942	-2187.9	46.012	-279.27	-2111.5	22.256	-231.7	-2115.3	36.79	-325.67	-2010.7	35.262	-307.01	-2031.2	22.012	-349.59	-2506	234.84	-8.5166	-2471.2	162.51	-60.619	-2480.8	153.8	32.306	-2427.9	66.869	10.608	-2461.2	82.413	50.855
94	0.93	-2202.7	1428.9	-234.3	-2257.6	1152	-186.29	-2072.3	1352.8	-195.56	-2043.7	1180.8	-174.73	-2132.6	1336.3	-386.32	-2194	1411.7	-36.203	NaN	NaN	NaN	-2094.1	903.51	-285.01	-2085.7	897.56	-37.034	-2252.7	936.45	-197.31	-2249.3	924.74	-117.97	-2156.6	972.39	-302.7	-2139.8	980.74	-17.643	-2085.2	668.73	-310.64	-2080.6	717.33	-313.69	-2123.5	696.91	-318.97	-2041.3	575.58	-336.17	-2028.3	455.53	-268.37	-2060.5	450.93	-155.54	-2133.6	661.91	16.82	-2161.6	694.6	10.771	-2121.5	704.67	11.588	-2133	577.92	70.245	-2122.2	426.65	26.743	-2114.8	416.72	-93.844	-2050.8	375.79	-286.98	-2020	359.2	-265.15	-2046.9	325.72	-286.91	-2033.1	247.51	-331.5	-2129.8	54.35	-225.11	-2126.5	65.315	-315.86	-2226.6	339.46	37.631	-2205.4	369.91	42.455	-2187.7	338.87	30.741	-2284.4	268.24	74.326	-2449.1	189.19	28.922	-2435.8	198.07	-64.031	-2187.5	44.687	-279.88	-2113.9	20.288	-232.14	-2115.3	36.818	-325.67	-2010.6	35.434	-306.99	-2031.2	21.831	-349.68	-2488.2	240.65	-6.3258	-2453.9	170.31	-61.3	-2463	158.57	31.444	-2409.9	71.582	4.3188	-2442.3	86.197	46.455
95	0.94	-2191.9	1429.3	-237.1	-2249.1	1153.4	-189.04	-2063	1352.9	-198.06	-2035.2	1181.5	-177.05	-2122.2	1336.5	-389.31	-2185	1413.3	-39.433	NaN	NaN	NaN	-2086.8	904.74	-286.67	-2078.8	898.78	-38.799	-2245.5	938.14	-198.63	-2242.1	926.02	-119.37	-2149	972.99	-304.05	-2133	982.4	-18.358	-2080.9	669.04	-311.02	-2075.3	717.59	-314.67	-2118.1	697.71	-320.31	-2037.5	575.9	-336.89	-2027.1	455.56	-268.95	-2059.5	450.97	-156.07	-2121.6	663.59	15.626	-2150.8	695.69	9.61	-2111.4	706.34	9.9911	-2118.2	580.16	69.684	-2103	429.57	26.26	-2096.1	420.4	-94.436	-2050.5	375.67	-287.5	-2019.9	358.91	-265.87	-2046.9	325.26	-286.87	-2033.5	247.43	-332.06	-2130	54.142	-225.23	-2126.5	65.211	-315.88	-2207	343.14	37.725	-2185.5	372.98	42.22	-2167.6	342.14	30.318	-2264.8	271.55	73.793	-2429.1	192.03	28.277	-2418.3	204.96	-64.486	-2188	46.052	-279.26	-2111.8	21.999	-231.73	-2115.4	36.807	-325.66	-2010.5	35.291	-306.82	-2031.2	21.814	-349.63	-2469.9	245.04	-3.3956	-2436.9	178.16	-63.325	-2442.5	161.3	29.274	-2389.2	75.991	-4.7587	-2419.8	88.754	40.162
96	0.95	-2184.5	1432	-240.37	-2240.8	1155.1	-191.48	-2054.6	1353.9	-201.01	-2026.7	1182.1	-178.74	-2112.2	1337.1	-391.89	-2176.1	1414.8	-42.321	NaN	NaN	NaN	-2079.1	905.81	-288.3	-2072.1	900.34	-40.572	-2238	939.69	-200.42	-2235	927.51	-121.14	-2141.4	973.44	-305.6	-2125.8	983.78	-19.929	-2075.9	669.4	-312.07	-2069.7	717.71	-315.77	-2112.8	698.63	-321.38	-2033.6	575.72	-337.1	-2026.2	455.35	-268.95	-2059	450.84	-156.44	-2109.2	665.61	14.369	-2139.3	697.07	8.5904	-2099.8	708.8	9.0778	-2102.3	582.36	68.721	-2084.1	433.03	25.543	-2077.7	424.41	-95.028	-2050.3	375.62	-287.84	-2019.8	358.65	-266.14	-2046.8	325.16	-287.19	-2033.6	247.25	-332.55	-2130.3	54.42	-225.52	-2126.5	65.213	-315.85	-2187	346.35	37.241	-2165.4	375.94	41.872	-2148	345.33	29.496	-2244.9	274.43	72.89	-2408.3	194.23	26.864	-2400.2	210.92	-65.32	-2188.1	46.086	-279.25	-2111.9	22.035	-231.65	-2115.4	36.847	-325.62	-2010.5	35.256	-306.76	-2031.2	21.756	-349.57	-2451.1	247.85	-1.5794	-2418.9	184.01	-64.567	-2420.8	163.45	26.896	-2366.5	80.66	-11.899	-2397.2	91.416	34.749
97	0.96	-2172.7	1432.1	-243.11	-2232.7	1157	-193.92	-2044.6	1354.9	-202.66	-2017.7	1183.5	-181.2	-2102.7	1338	-394.33	-2167.2	1416.5	-44.818	NaN	NaN	NaN	-2071.4	907.28	-289.85	-2065.4	902.01	-42.237	-2230.4	941.3	-202.37	-2227.9	929.11	-123.13	-2133.8	974.16	-307.2	-2119	985.44	-21.475	-2071.3	669.73	-312.51	-2063.9	717.87	-317.1	-2107.5	699.55	-322.28	-2030	575.16	-337.15	-2025	455.38	-269.03	-2059.1	450.88	-156.89	-2096.9	668.6	13.953	-2127.7	699	7.5368	-2089.3	711.42	7.3936	-2087.6	586.02	68.466	-2065	436.75	24.711	-2060.3	429.82	-95.568	-2049.9	375.64	-288.04	-2019.7	358.55	-265.93	-2046.7	325.16	-287.22	-2034	247.65	-333.62	-2130.4	54.069	-225.32	-2125.8	63.668	-316.05	-2166.8	349.34	36.139	-2145.4	379.17	41.139	-2128	348.84	28.209	-2224.2	276.73	71.397	-2387.7	196.17	24.922	-2380.5	215.27	-66.846	-2188.1	46.041	-279.34	-2112	21.976	-231.53	-2115.4	36.847	-325.51	-2010.6	35.305	-306.54	-2031.2	21.828	-349.4	-2431.8	249.52	-1.8906	-2398.5	188.09	-66.566	-2399.5	165.46	24.526	-2343.4	85.776	-16.19	-2374.2	93.212	30.658
98	0.97	-2165.6	1435.3	-245.78	-2224.6	1158.8	-196.46	-2036	1355.9	-204.57	-2010.8	1184.1	-182.38	-2093.3	1339.2	-396.54	-2158.5	1418.3	-47.19	NaN	NaN	NaN	-2063.1	908.4	-290.99	-2058.7	903.96	-43.679	-2222.8	942.95	-204.45	-2220.9	930.75	-125.21	-2125.9	974.72	-308.83	-2112.5	987.41	-22.858	-2066.7	670.12	-313.07	-2058.6	717.53	-318.08	-2102	700.21	-323.33	-2027.9	575.42	-338.6	-2023.9	455.32	-269.29	-2059.6	451.38	-157.7	-2084.2	671.56	13.027	-2114.9	701.52	7.2678	-2077.3	714.58	6.598	-2072.1	589.07	67.448	-2045.9	440.88	23.655	-2043.4	436.06	-95.943	-2049.4	375.88	-288.17	-2019.5	358.53	-265.8	-2046.4	325.27	-287.21	-2031.9	245.84	-331.09	-2130.6	54.277	-225.28	-2126.5	65.083	-315.67	-2146.9	352.53	34.835	-2125.5	382.16	40.148	-2106.9	353.61	27.814	-2202.9	278.44	69.119	-2366.9	197.86	22.384	-2359.1	217.76	-69.387	-2188.2	46.06	-279.25	-2112.1	22.061	-231.45	-2115.3	36.86	-325.39	-2010.6	35.311	-306.35	-2031.3	21.859	-349.19	-2412.3	250.14	-4.9507	-2376.4	190.24	-69.26	-2377.9	167.09	21.843	-2318.3	89.246	-18.927	-2350.3	95.317	27.616
99	0.98	-2156.3	1437.3	-248.07	-2216.7	1160.9	-198.95	-2027.3	1356.9	-207.04	-2002.9	1185.4	-183.94	-2083.8	1340.4	-398.55	-2150	1420.4	-49.528	NaN	NaN	NaN	-2054.7	909.96	-291.8	-2052.2	906.13	-44.823	-2215.1	944.57	-206.58	-2213.9	932.53	-127.4	-2117.9	975.96	-310.32	-2106.1	989.52	-24.279	-2062.2	670.58	-313.82	-2052.6	718.48	-319.19	-2096.4	701.38	-324.41	-2025.9	575.69	-340.06	-2023	455.25	-269.57	-2060.1	451.96	-158.44	-2071.3	674.83	11.687	-2104.1	703.7	6.3693	-2066	718.15	5.4303	-2056.6	593.53	66.646	-2027.1	445.66	22.539	-2025.5	441.12	-96.624	-2048.9	376.13	-288.54	-2019.2	358.73	-265.87	-2046.1	325.48	-287.38	-2033.1	247.58	-333.21	-2130.9	54.335	-225.28	-2126.5	65.109	-315.6	-2126.9	355.49	33.124	-2105.6	385.08	38.72	-2086.7	356.92	25.768	-2181.6	279.89	66.259	-2345.7	199.8	19.164	-2336.4	218.32	-72.942	-2188	45.291	-279.65	-2114.5	20.793	-232.64	-2115.4	36.945	-325.33	-2010.7	35.277	-306.28	-2031.3	21.805	-349.07	-2392.8	250.16	-10.094	-2353	190.66	-72.904	-2355.9	169.16	19.309	-2292.6	92.932	-19.694	-2325.2	98.479	26.291
100	0.99	-2147	1439.1	-250.44	-2208.8	1162.9	-201.47	-2019.1	1358	-208.59	-1995.3	1186.7	-185.23	-2074.4	1341.8	-400.29	-2141.9	1422.6	-51.797	NaN	NaN	NaN	-2046.5	911.56	-292.62	-2045.5	908.37	-45.981	-2207.4	946.31	-208.74	-2206.7	934.22	-129.58	-2109.5	977.41	-311.63	-2099.6	991.62	-25.744	-2057.5	671.46	-315.23	-2047	718.85	-320.03	-2090.8	702.67	-325.71	NaN	NaN	NaN	-2022	455.48	-270.2	-2060.2	452.64	-159.7	-2059	678.78	10.627	-2092.6	707.04	5.3103	-2054.9	722	5.7081	-2040.9	598.05	65.611	-2008.9	450.72	21.385	-2007.7	446.3	-97.575	-2048.5	376.28	-289.34	-2019	359	-266.69	-2045.9	325.75	-287.8	-2032.5	247.32	-333.3	-2131.2	54.368	-225.41	-2125.9	63.789	-315.92	-2105.6	356.81	29.491	-2085.8	387.66	36.905	-2067.8	359.22	22.692	-2160	280.55	62.711	-2323.9	201.47	15.268	-2313	217.34	-77.175	-2188	45.221	-279.74	-2114.1	20.942	-232.25	-2115.3	36.872	-325.26	-2010.7	34.972	-306.34	-2031.3	21.713	-349.04	-2372.6	248.93	-16.764	-2329.1	189.23	-76.869	-2333.2	170.46	15.764	-2265.8	96.34	-19.429	-2299.1	101.75	25.601
101	1	-2137.9	1441	-252.66	-2201	1165	-203.8	-2011.1	1359.4	-210.76	-1987.4	1188	-186.32	-2065.1	1343.2	-401.96	-2133.9	1424.9	-54.103	NaN	NaN	NaN	-2038.1	912.99	-293.46	-2038.7	910.74	-47.032	-2199.6	947.96	-210.78	-2199.5	935.83	-131.65	-2101	979.09	-312.9	-2093.1	993.74	-27.14	-2051.5	672.57	-317.4	-2040.9	719.57	-321.23	-2085	704.22	-327.25	NaN	NaN	NaN	-2022.1	453.7	-272.8	-2059.9	453.37	-161.39	-2046.9	682.98	9.7146	-2081.1	710.39	4.2513	-2044.6	726.1	2.8008	-2026.5	603.21	64.555	-1991.4	456.11	20.158	-1989.8	451.4	-98.461	-2048.2	376.47	-290.61	-2018.9	359.14	-267.38	-2045.8	326.14	-289.6	-2032.3	247.41	-333.99	-2131.3	54.713	-225.59	-2126.6	65.089	-315.78	-2085.9	359.83	27.234	-2066.6	390.59	34.898	-2047.6	363.39	21.099	-2138.3	281.32	59.166	-2301.9	202.5	10.917	-2289.5	215.38	-81.644	-2188.1	45.334	-279.79	-2114.1	21.098	-232.27	-2115.4	36.875	-325.28	-2010.9	35.226	-306.37	-2031.4	21.563	-349.1	-2352	246.28	-24.01	-2305	186.56	-81.221	-2309.4	170.3	11.627	-2238.2	99.128	-19.207	-2272.1	104.84	24.903
